<svg width="22" height="22" viewBox="0 0 22 22" fill="none" xmlns="http://www.w3.org/2000/svg">
<path d="M15.7292 13.9167H14.7746L14.4363 13.5904C15.8863 11.8988 16.6354 9.59086 16.2246 7.13794C15.6567 3.77877 12.8534 1.09627 9.47002 0.68544C4.35877 0.0571069 0.0571069 4.35877 0.68544 9.47002C1.09627 12.8534 3.77877 15.6567 7.13794 16.2246C9.59086 16.6354 11.8988 15.8863 13.5904 14.4363L13.9167 14.7746V15.7292L19.0521 20.8646C19.5475 21.36 20.3571 21.36 20.8525 20.8646C21.3479 20.3692 21.3479 19.5596 20.8525 19.0642L15.7292 13.9167ZM8.47919 13.9167C5.47044 13.9167 3.04169 11.4879 3.04169 8.47919C3.04169 5.47044 5.47044 3.04169 8.47919 3.04169C11.4879 3.04169 13.9167 5.47044 13.9167 8.47919C13.9167 11.4879 11.4879 13.9167 8.47919 13.9167Z" fill="#90A0AD"/>
</svg>
