<svg width="30" height="46" viewBox="0 0 30 46" fill="none" xmlns="http://www.w3.org/2000/svg">
<rect width="30" height="30" transform="matrix(-1 0 0 1 30 0)" fill="#7785FF"/>
<path d="M15.5494 28.7505C14.1959 29.9448 14.1959 32.0552 15.5494 33.2495L25.0151 41.6016C26.9522 43.3108 30 41.9354 30 39.3521L30 22.6479C30 20.0646 26.9522 18.6892 25.0151 20.3984L15.5494 28.7505Z" fill="#7785FF"/>
<path d="M14.2156 33.0873C15.526 31.8969 15.526 29.8365 14.2156 28.6461L5.01758 20.2908C3.09018 18.5401 0.000424198 19.9076 0.000424312 22.5115L0.000425042 39.2219C0.000425156 41.8258 3.09018 43.1933 5.01757 41.4425L14.2156 33.0873Z" fill="#7785FF"/>
</svg>
