<svg width="91" height="102" viewBox="0 0 91 102" fill="none" xmlns="http://www.w3.org/2000/svg">
<g filter="url(#filter0_d)">
<rect width="29.7748" height="30" transform="matrix(-1 0 0 1 60.4462 30)" fill="#7785FF"/>
<path d="M46.3419 57.9552C45.0345 59.1453 45.0345 61.2022 46.3419 62.3923L55.545 70.7695C57.4716 72.5233 60.5644 71.1563 60.5644 68.551L60.5644 51.7966C60.5644 49.1913 57.4716 47.8243 55.545 49.5781L46.3419 57.9552Z" fill="#7785FF"/>
<path d="M45.2371 57.9521C46.5492 59.1427 46.5492 61.205 45.2371 62.3956L35.6874 71.0606C33.7596 72.8098 30.6715 71.4419 30.6715 68.8388L30.6715 51.5089C30.6715 48.9058 33.7596 47.5379 35.6874 49.2871L45.2371 57.9521Z" fill="#7785FF"/>
</g>
<defs>
<filter id="filter0_d" x="0.671387" y="0" width="89.893" height="101.845" filterUnits="userSpaceOnUse" color-interpolation-filters="sRGB">
<feFlood flood-opacity="0" result="BackgroundImageFix"/>
<feColorMatrix in="SourceAlpha" type="matrix" values="0 0 0 0 0 0 0 0 0 0 0 0 0 0 0 0 0 0 127 0"/>
<feOffset/>
<feGaussianBlur stdDeviation="15"/>
<feColorMatrix type="matrix" values="0 0 0 0 0 0 0 0 0 0 0 0 0 0 0 0 0 0 0.08 0"/>
<feBlend mode="normal" in2="BackgroundImageFix" result="effect1_dropShadow"/>
<feBlend mode="normal" in="SourceGraphic" in2="effect1_dropShadow" result="shape"/>
</filter>
</defs>
</svg>
