<svg width="70" height="24" viewBox="0 0 70 24" fill="none" xmlns="http://www.w3.org/2000/svg">
<path d="M0.726 10.256C0.726 8.73067 1.056 7.374 1.716 6.186C2.376 4.98333 3.29267 4.052 4.466 3.392C5.654 2.71733 6.996 2.38 8.492 2.38C10.3253 2.38 11.8947 2.864 13.2 3.832C14.5053 4.8 15.378 6.12 15.818 7.792H11.682C11.374 7.14667 10.934 6.65533 10.362 6.318C9.80467 5.98067 9.16667 5.812 8.448 5.812C7.28933 5.812 6.35067 6.21533 5.632 7.022C4.91333 7.82867 4.554 8.90667 4.554 10.256C4.554 11.6053 4.91333 12.6833 5.632 13.49C6.35067 14.2967 7.28933 14.7 8.448 14.7C9.16667 14.7 9.80467 14.5313 10.362 14.194C10.934 13.8567 11.374 13.3653 11.682 12.72H15.818C15.378 14.392 14.5053 15.712 13.2 16.68C11.8947 17.6333 10.3253 18.11 8.492 18.11C6.996 18.11 5.654 17.78 4.466 17.12C3.29267 16.4453 2.376 15.514 1.716 14.326C1.056 13.138 0.726 11.7813 0.726 10.256ZM21.2238 1.72V18H17.4618V1.72H21.2238ZM25.1821 4.448C24.5221 4.448 23.9794 4.25733 23.5541 3.876C23.1434 3.48 22.9381 2.996 22.9381 2.424C22.9381 1.83733 23.1434 1.35333 23.5541 0.971999C23.9794 0.575999 24.5221 0.377999 25.1821 0.377999C25.8274 0.377999 26.3554 0.575999 26.7661 0.971999C27.1914 1.35333 27.4041 1.83733 27.4041 2.424C27.4041 2.996 27.1914 3.48 26.7661 3.876C26.3554 4.25733 25.8274 4.448 25.1821 4.448ZM27.0521 5.724V18H23.2901V5.724H27.0521ZM28.3704 11.884C28.3704 10.6667 28.6197 9.58133 29.1184 8.628C29.6317 7.67467 30.3137 6.934 31.1644 6.406C32.0297 5.86333 32.9684 5.592 33.9804 5.592C34.7577 5.592 35.4544 5.73133 36.0704 6.01C36.6864 6.274 37.185 6.648 37.5664 7.132V5.724H41.3284V23.852H37.5664V16.46C37.141 16.9733 36.6204 17.384 36.0044 17.692C35.403 18 34.7137 18.154 33.9364 18.154C32.939 18.154 32.015 17.89 31.1644 17.362C30.3137 16.834 29.6317 16.0933 29.1184 15.14C28.6197 14.1867 28.3704 13.1013 28.3704 11.884ZM37.5664 11.862C37.5664 11.202 37.4344 10.652 37.1704 10.212C36.921 9.75733 36.591 9.42 36.1804 9.2C35.7697 8.96533 35.337 8.848 34.8824 8.848C34.4424 8.848 34.017 8.96533 33.6064 9.2C33.1957 9.42 32.8584 9.75733 32.5944 10.212C32.3304 10.6667 32.1984 11.224 32.1984 11.884C32.1984 12.544 32.3304 13.1013 32.5944 13.556C32.8584 13.996 33.1957 14.3333 33.6064 14.568C34.017 14.788 34.4424 14.898 34.8824 14.898C35.3224 14.898 35.7477 14.788 36.1584 14.568C36.5837 14.3333 36.921 13.9887 37.1704 13.534C37.4344 13.0793 37.5664 12.522 37.5664 11.862ZM55.512 5.724V18H51.75V16.328C51.3687 16.8707 50.848 17.3107 50.188 17.648C49.5427 17.9707 48.824 18.132 48.032 18.132C47.0933 18.132 46.2647 17.9267 45.546 17.516C44.8273 17.0907 44.27 16.482 43.874 15.69C43.478 14.898 43.28 13.9667 43.28 12.896V5.724H47.02V12.39C47.02 13.2113 47.2327 13.8493 47.658 14.304C48.0834 14.7587 48.6554 14.986 49.374 14.986C50.1073 14.986 50.6867 14.7587 51.112 14.304C51.5374 13.8493 51.75 13.2113 51.75 12.39V5.724H55.512ZM69.1262 11.664C69.1262 12.016 69.1042 12.3827 69.0602 12.764H60.5462C60.6049 13.5267 60.8469 14.1133 61.2722 14.524C61.7122 14.92 62.2476 15.118 62.8782 15.118C63.8169 15.118 64.4696 14.722 64.8362 13.93H68.8402C68.6349 14.7367 68.2609 15.4627 67.7182 16.108C67.1902 16.7533 66.5229 17.2593 65.7162 17.626C64.9096 17.9927 64.0076 18.176 63.0102 18.176C61.8076 18.176 60.7369 17.9193 59.7982 17.406C58.8596 16.8927 58.1262 16.1593 57.5982 15.206C57.0702 14.2527 56.8062 13.138 56.8062 11.862C56.8062 10.586 57.0629 9.47133 57.5762 8.518C58.1042 7.56467 58.8376 6.83133 59.7762 6.318C60.7149 5.80467 61.7929 5.548 63.0102 5.548C64.1982 5.548 65.2542 5.79733 66.1782 6.296C67.1022 6.79467 67.8209 7.506 68.3342 8.43C68.8622 9.354 69.1262 10.432 69.1262 11.664ZM65.2762 10.674C65.2762 10.0287 65.0562 9.51533 64.6162 9.134C64.1762 8.75267 63.6262 8.562 62.9662 8.562C62.3356 8.562 61.8002 8.74533 61.3602 9.112C60.9349 9.47867 60.6709 9.99933 60.5682 10.674H65.2762Z" fill="#010100"/>
</svg>
